<svg width="24" height="24" viewBox="0 0 24 24" fill="none" xmlns="http://www.w3.org/2000/svg">
  <path d="M10.9 23C12.3 23 13.6123 22.7333 14.837 22.2C16.0617 21.6667 17.1283 20.9457 18.037 20.037C18.9457 19.129 19.6667 18.0623 20.2 16.837C20.7333 15.6117 21 14.2993 21 12.9C21 10.4667 20.225 8.32067 18.675 6.462C17.125 4.60333 15.15 3.44933 12.75 3C13.05 4.65 12.9583 6.26267 12.475 7.838C11.9917 9.41333 11.1583 10.7923 9.975 11.975C8.79167 13.1583 7.41233 13.9917 5.837 14.475C4.26167 14.9583 2.64933 15.05 1 14.75C1.43333 17.15 2.58333 19.125 4.45 20.675C6.31667 22.225 8.46667 23 10.9 23Z" fill="white"/>
</svg>