<svg width="102" height="30" viewBox="0 0 102 30" fill="none" xmlns="http://www.w3.org/2000/svg">
  <path fill-rule="evenodd" clip-rule="evenodd" d="M1.69672 29.1635V12.0909H6.42389V25.1454H9.76667C12.2428 25.1454 14.1562 24.4701 15.5068 23.1195C16.8574 21.7689 17.5327 19.8667 17.5327 17.4131C17.5327 14.9595 16.8574 13.0461 15.5068 11.673C14.1562 10.2773 12.2428 9.57951 9.76667 9.57951H8.55022V5.59518H9.9355C12.4116 5.59518 14.5839 6.07916 16.4522 7.0471C18.3431 8.01505 19.795 9.39943 20.808 11.2003C21.8435 12.9786 22.3612 15.0495 22.3612 17.4131C22.3612 19.7767 21.8435 21.8477 20.808 23.626C19.795 25.3818 18.3431 26.7437 16.4522 27.7116C14.5839 28.6795 12.4116 29.1635 9.9355 29.1635H1.69672ZM24.6842 19.7429C24.6842 17.8521 25.0556 16.175 25.7984 14.7119C26.5638 13.2487 27.588 12.1232 28.8711 11.3353C30.1767 10.5475 31.6286 10.1535 33.2268 10.1535C34.6225 10.1535 35.838 10.4349 36.8735 10.9977C37.9315 11.5604 38.7756 12.2695 39.4059 13.1249V10.4574H44.1669V29.1635H39.4059V26.4285C38.7982 27.3064 37.954 28.038 36.8735 28.6233C35.8155 29.186 34.5887 29.4674 33.1931 29.4674C31.6174 29.4674 30.1767 29.0622 28.8711 28.2518C27.588 27.4415 26.5638 26.3047 25.7984 24.8415C25.0556 23.3558 24.6842 21.6563 24.6842 19.7429ZM39.4059 19.8105C39.4059 18.6624 39.1808 17.6832 38.7306 16.8729C38.2804 16.04 37.6726 15.4097 36.9073 14.982C36.1419 14.5318 35.3203 14.3067 34.4424 14.3067C33.5645 14.3067 32.7541 14.5205 32.0113 14.9482C31.2684 15.3759 30.6607 16.0062 30.188 16.8391C29.7377 17.6495 29.5126 18.6174 29.5126 19.7429C29.5126 20.8685 29.7377 21.8589 30.188 22.7143C30.6607 23.5472 31.2684 24.1887 32.0113 24.6389C32.7766 25.0891 33.587 25.3142 34.4424 25.3142C35.3203 25.3142 36.1419 25.1004 36.9073 24.6727C37.6726 24.2225 38.2804 23.5922 38.7306 22.7818C39.1808 21.9489 39.4059 20.9585 39.4059 19.8105ZM54.2876 14.3405V23.3896C54.2876 24.0199 54.4339 24.4814 54.7265 24.774C55.0417 25.0441 55.5594 25.1792 56.2797 25.1792H58.4745V29.1635H55.5031C51.5188 29.1635 49.5266 27.2276 49.5266 23.3558V14.3405H47.2981V10.4574H49.5266V5.83154H54.2876V10.4574H58.4745V14.3405H54.2876ZM60.659 19.7429C60.659 17.8521 61.0304 16.175 61.7732 14.7119C62.5386 13.2487 63.5628 12.1232 64.8459 11.3353C66.1515 10.5475 67.6034 10.1535 69.2016 10.1535C70.5973 10.1535 71.8128 10.4349 72.8483 10.9977C73.9063 11.5604 74.7504 12.2695 75.3807 13.1249V10.4574H80.1417V29.1635H75.3807V26.4285C74.7729 27.3064 73.9288 28.038 72.8483 28.6233C71.7903 29.186 70.5635 29.4674 69.1679 29.4674C67.5921 29.4674 66.1515 29.0622 64.8459 28.2518C63.5628 27.4415 62.5386 26.3047 61.7732 24.8415C61.0304 23.3558 60.659 21.6563 60.659 19.7429ZM75.3807 19.8105C75.3807 18.6624 75.1556 17.6832 74.7054 16.8729C74.2552 16.04 73.6474 15.4097 72.8821 14.982C72.1167 14.5318 71.2951 14.3067 70.4172 14.3067C69.5393 14.3067 68.7289 14.5205 67.9861 14.9482C67.2432 15.3759 66.6355 16.0062 66.1627 16.8391C65.7125 17.6495 65.4874 18.6174 65.4874 19.7429C65.4874 20.8685 65.7125 21.8589 66.1627 22.7143C66.6355 23.5472 67.2432 24.1887 67.9861 24.6389C68.7514 25.0891 69.5618 25.3142 70.4172 25.3142C71.2951 25.3142 72.1167 25.1004 72.8821 24.6727C73.6474 24.2225 74.2552 23.5922 74.7054 22.7818C75.1556 21.9489 75.3807 20.9585 75.3807 19.8105ZM89.587 25.1792H100.189V29.1635H84.117V25.5168L94.6519 9.57951H84.117V5.59518H100.189V9.24186L89.587 25.1792Z" fill="var(--primary-color)"/>
  <rect x="2.46204" y="6.23242" width="4.22069" height="4.22069" fill="#03EF62"/>
  <rect y="3.06693" width="2.46207" height="2.46207" fill="#03EF62"/>
  <rect x="2.46204" y="0.604858" width="1.4069" height="1.4069" fill="#03EF62"/>
</svg>